<svg width="11" height="9" viewBox="0 0 11 9" fill="none" xmlns="http://www.w3.org/2000/svg">
<path d="M9.80207 0.773098C8.73178 -0.138994 7.14001 0.0250654 6.15761 1.03872L5.77285 1.43519L5.38809 1.03872C4.40764 0.0250654 2.81392 -0.138994 1.74363 0.773098C0.51709 1.81995 0.452638 3.69882 1.55027 4.83357L5.3295 8.73583C5.57363 8.98778 5.97011 8.98778 6.21425 8.73583L9.99347 4.83357C11.0931 3.69882 11.0286 1.81995 9.80207 0.773098Z" fill="#FFFBFB"/>
<mask id="mask0_149_1326" style="mask-type:alpha" maskUnits="userSpaceOnUse" x="0" y="0" width="11" height="9">
<path d="M9.80207 0.773098C8.73178 -0.138994 7.14001 0.0250654 6.15761 1.03872L5.77285 1.43519L5.38809 1.03872C4.40764 0.0250654 2.81392 -0.138994 1.74363 0.773098C0.51709 1.81995 0.452638 3.69882 1.55027 4.83357L5.3295 8.73583C5.57363 8.98778 5.97011 8.98778 6.21425 8.73583L9.99347 4.83357C11.0931 3.69882 11.0286 1.81995 9.80207 0.773098Z" fill="#FFFBFB"/>
</mask>
<g mask="url(#mask0_149_1326)">
<rect x="2.33618" y="6.16138" width="7.12817" height="3.01343" fill="#E93C3C"/>
</g>
</svg>
