<svg width="11" height="10" viewBox="0 0 11 10" fill="none" xmlns="http://www.w3.org/2000/svg">
<path d="M9.8426 1.31155C8.7723 0.399458 7.18054 0.563518 6.19813 1.57717L5.81338 1.97365L5.42862 1.57717C4.44817 0.563518 2.85445 0.399458 1.78416 1.31155C0.557618 2.3584 0.493166 4.23728 1.5908 5.37202L5.37003 9.27429C5.61416 9.52624 6.01064 9.52624 6.25477 9.27429L10.034 5.37202C11.1336 4.23728 11.0691 2.3584 9.8426 1.31155Z" fill="#FFFBFB"/>
<mask id="mask0_149_1330" style="mask-type:alpha" maskUnits="userSpaceOnUse" x="0" y="0" width="11" height="10">
<path d="M9.8426 1.31155C8.7723 0.399458 7.18054 0.563518 6.19813 1.57717L5.81338 1.97365L5.42862 1.57717C4.44817 0.563518 2.85445 0.399458 1.78416 1.31155C0.557618 2.3584 0.493166 4.23727 1.5908 5.37202L5.37003 9.27429C5.61416 9.52624 6.01064 9.52624 6.25477 9.27429L10.034 5.37202C11.1336 4.23727 11.0691 2.3584 9.8426 1.31155Z" fill="#FFFBFB"/>
</mask>
<g mask="url(#mask0_149_1330)">
<rect x="0.415283" y="4.44775" width="10.3979" height="5.0155" fill="#E93C3C"/>
</g>
</svg>
