<svg width="415" height="163" viewBox="0 0 415 163" fill="none" xmlns="http://www.w3.org/2000/svg">
<path d="M68.9413 162.12C51.0613 162.12 37.3813 152.4 37.3813 124.2V72.4805H48.4213V124.56C48.4213 145.68 57.4213 152.28 68.9413 152.28C80.5813 152.28 89.9413 145.68 89.9413 124.56V72.4805H100.622V124.2C100.622 152.4 86.9413 162.12 68.9413 162.12Z" fill="white"/>
<path d="M11.2256 0.44043H0.225586V59.4404H11.2256V0.44043Z" fill="white"/>
<path d="M11.2256 74.4404H0.225586V133.44H11.2256V74.4404Z" fill="white"/>
<path d="M45.2256 0.44043H34.2256V59.4404H45.2256V0.44043Z" fill="white"/>
<path d="M65.2256 50.4404H0.225586V59.4404H65.2256V50.4404Z" fill="white"/>
<path d="M45.2256 72.4404H0.225586V81.4404H45.2256V72.4404Z" fill="white"/>
<path d="M100.526 29.9404H89.8257V76.9404H100.526V29.9404Z" fill="white"/>
<path d="M129.458 128.579V109.926H133.189V117.286H140.247V109.926H143.952V128.579H140.247V120.513H133.189V128.579H129.458ZM162.249 128.932C157.686 128.932 154.989 126.386 154.989 120.21V109.926H158.695V120.538C158.695 124.395 160.056 125.705 162.249 125.705C164.442 125.705 165.879 124.395 165.879 120.538V109.926H169.458V120.21C169.458 126.386 166.811 128.932 162.249 128.932Z" fill="white"/>
<path d="M200.617 128.498V109.759C200.617 106.166 202.321 103.379 206.657 103.379C208.02 103.379 209.197 103.658 209.971 103.936L209.104 107.343C208.516 107.096 207.865 106.941 207.277 106.941C205.914 106.941 205.17 107.777 205.17 109.697V128.498H200.617ZM198.294 114.746V111.37L200.896 111.184H208.454V114.746H198.294ZM224.625 128.932C220.877 128.932 219.235 126.361 219.235 121.994V111.184H223.788V121.436C223.788 124.1 224.532 125.029 226.235 125.029C227.66 125.029 228.589 124.41 229.766 122.861V111.184H234.288V128.498H230.572L230.231 126.02H230.138C228.62 127.786 226.979 128.932 224.625 128.932ZM247.226 128.498V111.184H250.912L251.283 114.25H251.376C252.615 111.958 254.505 110.751 256.301 110.751C257.23 110.751 257.788 110.874 258.314 111.122L257.54 115.025C256.92 114.87 256.456 114.746 255.713 114.746C254.381 114.746 252.739 115.675 251.779 118.184V128.498H247.226ZM268.8 128.498V111.184H272.486L272.858 113.476H272.951C274.437 111.989 276.234 110.751 278.588 110.751C282.305 110.751 283.946 113.352 283.946 117.689V128.498H279.393V118.277C279.393 115.551 278.619 114.653 276.946 114.653C275.521 114.653 274.623 115.335 273.353 116.573V128.498H268.8ZM296.695 128.498V111.184H301.248V128.498H296.695ZM298.956 108.366C297.376 108.366 296.323 107.374 296.323 105.857C296.323 104.37 297.376 103.41 298.956 103.41C300.535 103.41 301.619 104.37 301.619 105.857C301.619 107.374 300.535 108.366 298.956 108.366ZM320.473 128.932C316.353 128.932 314.774 126.33 314.774 122.458V114.746H312.358V111.37L315.052 111.184L315.548 106.476H319.327V111.184H323.632V114.746H319.327V122.458C319.327 124.441 320.163 125.37 321.681 125.37C322.269 125.37 322.92 125.153 323.415 124.967L324.159 128.281C323.229 128.591 322.021 128.932 320.473 128.932ZM340.416 128.932C336.669 128.932 335.027 126.361 335.027 121.994V111.184H339.58V121.436C339.58 124.1 340.323 125.029 342.027 125.029C343.452 125.029 344.381 124.41 345.558 122.861V111.184H350.08V128.498H346.363L346.023 126.02H345.93C344.412 127.786 342.77 128.932 340.416 128.932ZM363.019 128.498V111.184H366.705L367.077 114.25H367.169C368.408 111.958 370.298 110.751 372.094 110.751C373.023 110.751 373.581 110.874 374.107 111.122L373.333 115.025C372.714 114.87 372.249 114.746 371.506 114.746C370.174 114.746 368.532 115.675 367.572 118.184V128.498H363.019ZM391.635 128.932C386.772 128.932 382.994 125.587 382.994 119.857C382.994 114.22 386.958 110.751 391.047 110.751C395.848 110.751 398.294 114.22 398.294 119.02C398.294 119.888 398.201 120.693 398.109 121.127H387.392C387.795 123.976 389.653 125.432 392.224 125.432C393.617 125.432 394.856 124.998 396.126 124.224L397.644 127.042C395.94 128.219 393.772 128.932 391.635 128.932ZM387.33 118.091H394.423C394.423 115.737 393.37 114.25 391.14 114.25C389.312 114.25 387.702 115.551 387.33 118.091Z" fill="white"/>
<path d="M405.352 138.703H125.352V139.703H405.352V138.703Z" fill="white"/>
<path d="M139.903 34.7404H179.663V45.6604H171.823V41.1104H147.393V45.6604H139.903V34.7404ZM155.793 42.2304H163.633V97.7404H155.793V42.2304ZM141.863 46.9204H178.333V53.4304H141.863V46.9204ZM138.433 82.4804H181.133V89.3404H138.433V82.4804ZM149.843 70.5804V73.7304H170.073V70.5804H149.843ZM149.843 62.0404V65.1904H170.073V62.0404H149.843ZM142.773 56.2304H177.493V79.4704H142.773V56.2304ZM122.053 37.6804H137.943V82.4804H122.053V75.1304H130.453V44.9604H122.053V37.6804ZM122.403 56.1604H134.443V63.3704H122.403V56.1604ZM117.923 37.6804H125.203V87.8704H117.923V37.6804ZM194.223 71.8404H256.733V79.1204H194.223V71.8404ZM221.033 66.2404H229.573V97.6704H221.033V66.2404ZM218.443 74.9904L225.303 78.0004C218.933 86.2604 208.293 93.4004 197.933 97.1104C196.673 95.0104 194.153 91.7904 192.333 90.1104C202.413 87.2404 213.053 81.4304 218.443 74.9904ZM232.093 75.2004C237.623 81.2904 248.333 86.8204 258.553 89.5504C256.733 91.1604 254.143 94.4504 252.953 96.5504C242.593 93.0504 231.813 86.1904 225.163 78.4204L232.093 75.2004ZM219.493 56.0204V60.7804H230.973V56.0204H219.493ZM219.493 45.3804V50.0704H230.973V45.3804H219.493ZM211.723 38.9404H239.163V67.2204H211.723V38.9404ZM221.383 31.9404L230.833 32.9904C229.363 36.7704 227.893 40.3404 226.703 42.7904L219.283 41.4604C220.123 38.5904 221.033 34.8104 221.383 31.9404ZM193.733 41.1804L199.473 36.3504C203.603 39.2204 208.573 43.4204 210.813 46.7104L204.653 52.1004C202.623 48.8104 197.863 44.2604 193.733 41.1804ZM237.343 57.9104L242.243 52.3104C247.423 54.9004 254.773 59.0304 258.413 61.9704L253.233 68.2704C249.873 65.2604 242.733 60.7804 237.343 57.9104ZM249.173 35.4404L256.453 39.7804C252.743 43.8404 248.193 48.0404 244.623 50.8404L238.393 46.7104C241.823 43.8404 246.513 39.0804 249.173 35.4404ZM192.473 61.6204C196.743 59.5904 203.043 56.2304 209.203 52.9404L211.513 59.6604C206.613 62.6704 201.153 65.9604 196.673 68.5504L192.473 61.6204ZM298.033 32.0804H306.643V42.0904H298.033V32.0804ZM272.763 37.5404H332.333V53.3604H323.793V45.1704H280.953V53.3604H272.763V37.5404ZM283.403 49.6504H321.203V56.7904H283.403V49.6504ZM290.263 62.1104L296.703 58.3304C313.223 69.8104 313.083 89.5504 305.593 94.9404C302.933 97.2504 300.693 97.8804 296.983 97.8804C295.233 97.9504 293.133 97.8804 291.033 97.7404C290.893 95.4304 290.123 92.0704 288.653 89.6904C291.243 89.9704 293.553 90.0404 295.373 90.0404C297.123 90.0404 298.453 89.8304 299.643 88.5704C303.633 85.4904 303.633 71.6304 290.263 62.1104ZM301.323 51.4704L308.253 54.3404C300.833 61.9004 288.093 67.2904 276.403 70.3704C275.633 68.7604 273.463 65.4004 272.133 63.8604C283.263 61.6204 295.233 57.2804 301.323 51.4704ZM295.863 65.4004L301.253 69.1804C295.443 73.6604 285.153 78.8404 277.313 81.5704C276.403 79.7504 274.653 76.8804 273.113 75.2004C280.743 73.3804 290.893 69.1804 295.863 65.4004ZM301.533 72.0504L307.273 76.3204C299.783 83.4604 286.133 90.8804 275.003 94.5904C274.023 92.4904 272.203 89.4804 270.593 87.6604C281.653 84.9304 295.023 78.3504 301.533 72.0504ZM312.173 52.6604C315.533 67.3604 322.743 79.8904 335.133 85.4204C333.243 87.1004 330.583 90.4604 329.323 92.7704C316.093 85.7004 309.093 71.7004 305.103 54.0604L312.173 52.6604ZM325.823 57.2104L332.403 62.8804C327.573 66.5204 321.483 70.4404 316.933 72.7504L311.543 67.7104C315.953 65.1904 322.183 60.7104 325.823 57.2104ZM353.893 35.4404H362.363V56.0904C362.363 68.2704 361.173 86.5404 353.473 97.9504C351.863 96.5504 348.153 94.3804 345.983 93.5404C353.263 82.9004 353.893 67.2204 353.893 56.0904V35.4404ZM359.703 35.4404H407.023V54.9704H359.703V47.6204H398.553V42.7904H359.703V35.4404ZM363.063 60.7804H411.013V68.2704H363.063V60.7804ZM369.853 88.3604H401.913V95.7104H369.853V88.3604ZM381.613 54.4104H390.013V76.9504H381.613V54.4104ZM366.143 74.0804H406.463V97.6704H398.063V81.4304H374.193V97.7404H366.143V74.0804Z" fill="white"/>
</svg>
